<?xml version="1.0" encoding="iso-8859-1"?>
<!-- Generator: Adobe Illustrator 18.1.1, SVG Export Plug-In . SVG Version: 6.00 Build 0)  -->
<svg xmlns="http://www.w3.org/2000/svg" xmlns:xlink="http://www.w3.org/1999/xlink" version="1.1" id="Capa_1" x="0px" y="0px" viewBox="0 0 295.35 295.35" style="enable-background:new 0 0 295.35 295.35;" xml:space="preserve" width="512px" height="512px">
<g>
	<g>
		<path d="M265.586,0h-2.29c-2.29,0-4.579,0-6.869,2.29l-20.606,20.606L212.927,4.579    c-2.29-2.29-4.579-2.29-6.869-2.29h-2.29c-2.29,0-4.579,0-6.869,2.29l-20.606,20.606L155.689,4.579    c-2.29-2.29-4.579-2.29-6.869-2.29h-2.29c-2.29,0-4.579,0-6.869,2.29l-20.606,20.606L98.45,4.579    c-2.29-2.29-4.579-2.29-6.869-2.29h-2.29c-2.29,0-4.579,0-6.869,2.29L64.107,25.185L41.212,4.579C41.212,2.29,36.633,0,34.343,0    h-4.579C16.027,0,6.869,11.448,6.869,22.895v249.56c0,13.737,11.448,22.895,22.895,22.895h235.822    c13.737,0,22.895-11.448,22.895-22.895V22.895C288.482,11.448,277.034,0,265.586,0z M267.876,274.745c0,2.29-2.29,2.29-2.29,2.29    H29.764c-2.29,0-2.29-2.29-2.29-2.29V22.895c0-2.29,2.29-2.29,2.29-2.29h2.29l25.185,25.185c4.579,4.579,9.158,4.579,13.737,0    l20.606-20.606l20.606,20.606c4.579,4.579,9.158,4.579,13.737,0l20.606-20.606l20.606,20.606c4.579,4.579,9.158,4.579,13.737,0    l20.606-20.606l20.606,20.606c4.579,4.579,9.158,4.579,13.737,0l25.185-25.185c2.29,0,2.29,2.29,2.29,2.29L267.876,274.745    L267.876,274.745z" fill="#FFFFFF"/>
		<rect x="48.08" y="64.107" width="196.9" height="32.054" fill="#FFFFFF"/>
		<path d="M130.504,116.766H48.08v82.423h82.423V116.766L130.504,116.766z M114.477,171.715    c0-2.29,0-9.158-4.579-9.158c-2.29,0-4.579,2.29-6.869,2.29c-2.29,4.579-6.869,6.869-9.158,11.448c0,2.29-4.579,4.579-4.579,2.29    c-2.29-6.869-2.29-18.316-9.158-25.185c-4.579-6.869-13.737,11.448-16.027,18.316c-2.29,2.29-6.869,2.29-4.579-2.29    c4.579-6.869,13.737-27.474,25.185-22.895c9.158,2.29,11.448,13.737,11.448,22.895c2.29-4.579,6.869-9.158,11.448-11.448    c9.158-4.579,11.448,2.29,11.448,9.158C121.346,171.715,116.766,174.005,114.477,171.715z" fill="#FFFFFF"/>
		<path d="M238.112,123.635h-84.713c-4.579,0-9.158,4.579-9.158,9.158c0,4.579,4.579,9.158,9.158,9.158    h84.713c4.579,0,9.158-4.579,9.158-9.158C249.56,128.214,244.981,123.635,238.112,123.635z" fill="#FFFFFF"/>
		<path d="M238.112,169.426h-84.713c-4.579,0-9.158,4.579-9.158,9.158c0,4.579,4.579,9.158,9.158,9.158    h84.713c4.579,0,9.158-4.579,9.158-9.158C247.27,174.005,244.981,169.426,238.112,169.426z" fill="#FFFFFF"/>
		<path d="M238.112,224.375H61.818c-4.579,0-9.158,4.579-9.158,9.158c0,4.579,4.579,9.158,9.158,9.158    h176.294c4.579,0,9.158-4.579,9.158-9.158C249.56,228.954,244.981,224.375,238.112,224.375z" fill="#FFFFFF"/>
	</g>
</g>
<g>
</g>
<g>
</g>
<g>
</g>
<g>
</g>
<g>
</g>
<g>
</g>
<g>
</g>
<g>
</g>
<g>
</g>
<g>
</g>
<g>
</g>
<g>
</g>
<g>
</g>
<g>
</g>
<g>
</g>
</svg>
